<svg width="391" height="434" viewBox="0 0 391 434" fill="none" xmlns="http://www.w3.org/2000/svg">
<path d="M195.5 434C242.874 434.029 288.644 416.153 324.293 383.7C359.942 351.247 383.041 306.427 389.291 257.581C395.542 208.735 384.518 159.191 358.272 118.168C332.026 77.1457 292.344 47.4391 246.613 34.5769C247.727 30.5408 247.924 26.2906 247.189 22.1616C246.454 18.0327 244.806 14.138 242.375 10.7849C239.945 7.43189 236.799 4.71222 233.185 2.84056C229.571 0.968903 225.589 -0.00352808 221.551 9.61806e-06H169.449C165.411 -0.00352808 161.429 0.968903 157.815 2.84056C154.201 4.71222 151.055 7.43189 148.625 10.7849C146.194 14.138 144.546 18.0327 143.811 22.1616C143.076 26.2906 143.273 30.5408 144.387 34.5769C98.6556 47.4391 58.9743 77.1457 32.728 118.168C6.48163 159.191 -4.54196 208.735 1.70869 257.581C7.95934 306.427 31.0585 351.247 66.7073 383.7C102.356 416.153 148.126 434.029 195.5 434V434ZM364.835 230.766C364.835 277.48 346.994 322.281 315.238 355.313C283.481 388.345 240.41 406.902 195.5 406.902C150.59 406.902 107.519 388.345 75.7623 355.313C44.0059 322.281 26.1654 277.48 26.1654 230.766C26.1654 184.051 44.0059 139.25 75.7623 106.219C107.519 73.1865 150.59 54.6294 195.5 54.6294C240.41 54.6294 283.481 73.1865 315.238 106.219C346.994 139.25 364.835 184.051 364.835 230.766V230.766Z" fill="black"/>
<path d="M167.881 201.606L296.836 124.919L223.11 259.054L94.1816 335.741L167.855 201.606H167.881Z" fill="black"/>
</svg>
