<svg width="642" height="572" viewBox="0 0 642 572" fill="none" xmlns="http://www.w3.org/2000/svg">
<g clip-path="url(#clip0_402_2)">
<path d="M632.569 276.392C592.514 266.007 552.429 255.64 512.374 245.236C507.367 227.585 499.54 210.666 489.132 194.999C509.104 162.359 529.157 129.719 549.159 97.0794C554.666 88.1419 543.732 78.3732 533.691 83.2888C497.167 101.137 460.693 118.994 424.22 136.851C406.466 127.31 387.22 120.172 367.112 115.669C355.205 79.5619 343.348 43.3561 331.411 7.2128C328.271 -2.39501 312.793 -2.43076 309.613 7.2128C297.796 43.3918 285.979 79.5887 274.142 115.777C254.417 120.261 235.519 127.25 218.027 136.529L107.383 82.6364C97.3815 77.7744 86.3872 87.5162 91.9145 96.4537C112.178 129.263 132.34 162.082 152.604 194.856C142.092 210.597 134.214 227.62 129.221 245.388L9.59803 276.616C-1.16551 279.431 -1.23572 293.257 9.59803 296.055L129.251 327.068C134.395 345.149 142.494 362.458 153.286 378.441C133.374 410.884 113.472 443.309 93.5997 475.752C88.0926 484.681 99.0166 494.459 109.068 489.552C145.411 471.757 181.794 453.963 218.148 436.186C235.815 445.566 254.921 452.605 274.864 457.082C286.541 492.644 298.247 528.135 309.904 563.644C313.104 573.26 328.612 573.278 331.732 563.644C343.308 528.18 354.934 492.707 366.49 457.243C386.661 452.748 405.982 445.641 423.838 436.15C459.981 453.739 496.114 471.346 532.256 488.944C534.463 490.606 537.101 491.107 539.679 490.83C542.428 490.687 544.876 489.552 546.761 487.925C548.858 486.209 550.272 483.868 550.443 481.231C550.622 480.047 550.517 478.842 550.137 477.696C549.757 476.55 549.109 475.489 548.236 474.581C528.464 442.46 508.633 410.321 488.821 378.146C499.394 362.284 507.318 345.135 512.344 327.238L632.579 295.831C643.382 293.016 643.453 279.19 632.619 276.366" fill="#FBB041"/>
<path d="M318.933 124.937C418.463 124.937 499.084 196.795 499.084 285.446C499.084 374.079 418.433 445.937 318.933 445.937C219.463 445.937 138.792 374.079 138.792 285.446C138.792 196.813 219.443 124.937 318.933 124.937" fill="#F9EC21"/>
<path d="M381.014 319.131H371.725C371.204 319.131 370.903 319.283 370.491 319.336C369.97 319.399 369.518 319.417 369.077 319.578C368.32 319.843 367.631 320.241 367.051 320.748C366.91 320.757 366.78 320.874 366.67 320.972C344.22 340.473 314.798 344.915 286.791 332.072C271.744 325.181 272.988 319.122 256.898 319.122C250.317 319.122 247.859 325.923 251.842 329.999C288.135 367.322 349.757 367.322 386.07 329.999C390.022 325.932 387.585 319.131 381.014 319.131" fill="#D88B25"/>
<path d="M304.337 255.514C297.455 238.774 281.867 222.749 260.289 223.115C240.227 223.464 228.089 242.411 221.519 256.756C217.426 265.694 233.707 269.573 237.749 260.751C241.962 251.546 248.172 241.357 259.527 238.273C272.558 234.725 284.475 250.652 288.086 259.5C291.818 268.527 308.078 264.612 304.337 255.514" fill="#D88B25"/>
<path d="M333.538 255.344C340.42 238.622 356.028 222.597 377.585 222.964C397.748 223.303 409.806 242.251 416.366 256.595C420.419 265.533 404.198 269.403 400.146 260.582C395.943 251.358 389.723 241.205 378.338 238.095C365.347 234.556 353.42 250.509 349.769 259.339C346.087 268.366 329.827 264.452 333.538 255.344Z" fill="#D88B25"/>
</g>
<defs>
<clipPath id="clip0_402_2">
<rect width="642" height="572" fill="white"/>
</clipPath>
</defs>
</svg>
