<svg width="512" height="512" viewBox="0 0 512 512" fill="none" xmlns="http://www.w3.org/2000/svg">
<path d="M261.891 12.452C261.891 12.452 262.616 15.817 264.656 21.706C266.57 27.595 269.869 36.007 274.296 46.102C276.723 51.15 279.063 56.618 282.066 62.401C285.145 68.185 287.968 74.284 291.678 80.593C295.31 86.902 298.744 93.422 302.867 100.047L314.99 120.132C318.951 126.862 323.432 133.592 327.565 140.217C331.749 146.842 335.859 153.362 340.121 159.671C344.346 165.98 348.264 172.08 352.276 177.863L363.579 194.162L381.447 218.558L388.649 227.812C446.358 301.963 433.029 408.857 358.878 466.566C284.727 524.275 177.833 510.946 120.124 436.795C71.3001 374.06 73.4391 287.806 120.124 227.812L127.326 218.558L145.194 194.162L156.497 177.863C160.509 172.079 164.428 165.98 168.652 159.671C172.914 153.362 177.024 146.842 181.208 140.217C185.34 133.592 189.821 126.862 193.783 120.132L205.906 100.047C210.029 93.422 213.463 86.902 217.095 80.593C220.804 74.284 223.628 68.184 226.707 62.401C229.71 56.617 232.051 51.149 234.477 46.102C238.904 36.007 242.203 27.594 244.117 21.706C246.157 15.817 246.882 12.452 246.882 12.452C247.25 10.7349 248.196 9.19593 249.562 8.09195C250.927 6.98798 252.63 6.38574 254.387 6.38574C256.143 6.38574 257.846 6.98798 259.211 8.09195C260.577 9.19593 261.523 10.7349 261.891 12.452V12.452Z" fill="#00B1FF"/>
<path d="M162.843 260.414L161.855 264.872C161.505 266.31 161.121 268.056 161.095 269.696C161.003 271.486 160.73 273.111 160.756 275.447C160.759 277.689 160.59 279.992 160.83 282.551C160.946 285.06 161.144 287.676 161.566 290.406C162.226 295.801 163.542 301.52 165.141 307.053C168.372 318.16 173.306 328.591 177.554 335.217C179.082 337.706 180.825 340.056 182.764 342.24L184.646 343.917C198.426 356.193 199.645 377.316 187.369 391.095C175.093 404.875 153.97 406.094 140.191 393.818C135.315 389.488 131.82 383.821 130.139 377.521L128.524 371.498L126.792 365.056C125.98 361.193 125.039 355.848 124.607 349.86C123.599 337.825 124.16 322.6 126.934 307.828C128.338 300.444 130.157 293.205 132.529 286.599C133.618 283.299 134.91 280.163 136.219 277.243C137.393 274.317 138.938 271.636 140.189 269.195C141.361 266.809 143.016 264.394 144.194 262.459C145.435 260.362 146.542 259.014 147.458 257.921L150.328 254.372C151.518 252.9 153.244 251.961 155.126 251.762C157.009 251.563 158.893 252.12 160.365 253.31C162.539 255.068 163.405 257.857 162.843 260.414V260.414Z" fill="#76DFFF"/>
</svg>
