<svg width="344" height="504" viewBox="0 0 344 504" fill="none" xmlns="http://www.w3.org/2000/svg">
<path d="M244.853 243.679L326.282 317.013C366.148 281.228 326.282 245.695 326.282 245.695L284.153 207.643C289.243 198.067 292.07 187.482 292.07 176.394C292.07 149.934 276.802 126.749 253.618 113.393L292.07 2.76305C238.067 -11.8532 221.385 36.2796 221.385 36.2796L198.483 101.549C163.706 104.825 135.432 125.993 126.102 155.73L0 192.27C18.0953 240.151 71.5331 224.275 71.5331 224.275L130.06 207.391C139.673 226.039 157.203 240.403 178.974 247.459V428.399C178.974 428.399 122.426 428.399 122.426 478.8V504H292.07V478.8C292.07 478.8 292.07 428.399 235.522 428.399V247.459C238.915 246.451 242.025 244.939 244.853 243.679ZM164.837 176.394C164.837 166.369 169.306 156.754 177.259 149.665C185.213 142.576 196 138.593 207.248 138.593C218.496 138.593 229.284 142.576 237.237 149.665C245.191 156.754 249.659 166.369 249.659 176.394C249.659 186.42 245.191 196.034 237.237 203.123C229.284 210.212 218.496 214.195 207.248 214.195C196 214.195 185.213 210.212 177.259 203.123C169.306 196.034 164.837 186.42 164.837 176.394Z" fill="black"/>
</svg>
